<svg width="214" height="45" viewBox="0 0 214 45" fill="none" xmlns="http://www.w3.org/2000/svg">
<path fill-rule="evenodd" clip-rule="evenodd" d="M43.5256 23.9824L39.7112 26.4812V34.3932L43.5256 36.8921C44.2853 36.8921 44.9047 35.9418 44.9047 34.7771V26.1C44.9047 24.9327 44.2853 23.9824 43.5256 23.9824Z" fill="#F8F8F8"/>
<path fill-rule="evenodd" clip-rule="evenodd" d="M26.4335 15.8162C28.5219 15.8099 30.5223 14.9746 31.995 13.4939C33.4678 12.0132 34.2923 10.0084 34.2874 7.92C34.293 5.83118 33.4688 3.82563 31.996 2.34439C30.5232 0.863145 28.5224 0.0274887 26.4335 0.0211792C25.3988 0.0236093 24.3747 0.229866 23.4197 0.628167C22.4647 1.02647 21.5975 1.60901 20.8677 2.34252C20.1379 3.07603 19.5597 3.94613 19.1662 4.90313C18.7727 5.86013 18.5716 6.88527 18.5744 7.92C18.5702 10.0091 19.3957 12.0143 20.8694 13.495C22.3431 14.9757 24.3445 15.8106 26.4335 15.8162ZM26.4335 2.57294C29.3665 2.57294 31.7435 4.96853 31.7435 7.92C31.7435 10.8741 29.3691 13.2671 26.4335 13.2671C25.7331 13.2657 25.0398 13.1262 24.3934 12.8566C23.7469 12.5871 23.1599 12.1927 22.666 11.6961C22.1721 11.1995 21.7809 10.6103 21.5149 9.96239C21.2488 9.31445 21.1132 8.62042 21.1156 7.92C21.1121 6.50584 21.6703 5.14816 22.6675 4.14547C23.6648 3.14278 25.0194 2.57715 26.4335 2.57294Z" fill="#F8F8F8"/>
<path fill-rule="evenodd" clip-rule="evenodd" d="M9.28588 15.8479C10.1708 15.8877 11.0547 15.7478 11.884 15.4366C12.7134 15.1253 13.4711 14.6493 14.1114 14.0371C14.7517 13.425 15.2613 12.6894 15.6095 11.8748C15.9577 11.0603 16.1372 10.1836 16.1372 9.29779C16.1372 8.41195 15.9577 7.53529 15.6095 6.72074C15.2613 5.90619 14.7517 5.17063 14.1114 4.55848C13.4711 3.94632 12.7134 3.47026 11.884 3.15903C11.0547 2.8478 10.1708 2.70786 9.28588 2.74765C7.59961 2.82346 6.00754 3.54669 4.84108 4.76678C3.67462 5.98687 3.02363 7.60982 3.02363 9.29779C3.02363 10.9858 3.67462 12.6087 4.84108 13.8288C6.00754 15.0489 7.59961 15.7721 9.28588 15.8479ZM9.28588 5.32323C9.808 5.32323 10.325 5.42607 10.8074 5.62588C11.2898 5.82569 11.7281 6.11855 12.0973 6.48774C12.4665 6.85694 12.7593 7.29524 12.9591 7.77761C13.1589 8.25999 13.2618 8.777 13.2618 9.29912C13.2618 9.82124 13.1589 10.3382 12.9591 10.8206C12.7593 11.303 12.4665 11.7413 12.0973 12.1105C11.7281 12.4797 11.2898 12.7725 10.8074 12.9724C10.325 13.1722 9.808 13.275 9.28588 13.275C8.23141 13.275 7.22013 12.8561 6.47451 12.1105C5.72889 11.3649 5.31 10.3536 5.31 9.29912C5.31 8.24465 5.72889 7.23337 6.47451 6.48774C7.22013 5.74212 8.23141 5.32323 9.28588 5.32323Z" fill="#F8F8F8"/>
<path fill-rule="evenodd" clip-rule="evenodd" d="M33.2179 18.6856H6.39C4.32265 18.6856 2.64706 20.422 2.64706 22.5635V38.4803C2.64706 40.6218 4.32265 42.3556 6.39 42.3556H33.2179C35.2853 42.3556 36.9635 40.6218 36.9635 38.4803V22.5662C36.9635 20.422 35.2853 18.6856 33.2179 18.6856Z" fill="#F8F8F8"/>
<path d="M62.112 24.544V37H60.474V27.712L56.334 37H55.182L51.024 27.694V37H49.386V24.544H51.15L55.758 34.84L60.366 24.544H62.112ZM69.1919 37.162C68.2679 37.162 67.4279 36.952 66.6719 36.532C65.9279 36.112 65.3399 35.518 64.9079 34.75C64.4879 33.97 64.2779 33.07 64.2779 32.05C64.2779 31.042 64.4939 30.154 64.9259 29.386C65.3699 28.606 65.9699 28.012 66.7259 27.604C67.4819 27.184 68.3279 26.974 69.2639 26.974C70.1999 26.974 71.0459 27.184 71.8019 27.604C72.5579 28.012 73.1519 28.6 73.5839 29.368C74.0279 30.136 74.2499 31.03 74.2499 32.05C74.2499 33.07 74.0219 33.97 73.5659 34.75C73.1219 35.518 72.5159 36.112 71.7479 36.532C70.9799 36.952 70.1279 37.162 69.1919 37.162ZM69.1919 35.722C69.7799 35.722 70.3319 35.584 70.8479 35.308C71.3639 35.032 71.7779 34.618 72.0899 34.066C72.4139 33.514 72.5759 32.842 72.5759 32.05C72.5759 31.258 72.4199 30.586 72.1079 30.034C71.7959 29.482 71.3879 29.074 70.8839 28.81C70.3799 28.534 69.8339 28.396 69.2459 28.396C68.6459 28.396 68.0939 28.534 67.5899 28.81C67.0979 29.074 66.7019 29.482 66.4019 30.034C66.1019 30.586 65.9519 31.258 65.9519 32.05C65.9519 32.854 66.0959 33.532 66.3839 34.084C66.6839 34.636 67.0799 35.05 67.5719 35.326C68.0639 35.59 68.6039 35.722 69.1919 35.722ZM80.0756 35.488L83.1356 27.136H84.8816L81.0116 37H79.1036L75.2336 27.136H76.9976L80.0756 35.488ZM87.3394 25.534C87.0274 25.534 86.7634 25.426 86.5474 25.21C86.3314 24.994 86.2234 24.73 86.2234 24.418C86.2234 24.106 86.3314 23.842 86.5474 23.626C86.7634 23.41 87.0274 23.302 87.3394 23.302C87.6394 23.302 87.8914 23.41 88.0954 23.626C88.3114 23.842 88.4194 24.106 88.4194 24.418C88.4194 24.73 88.3114 24.994 88.0954 25.21C87.8914 25.426 87.6394 25.534 87.3394 25.534ZM88.1314 27.136V37H86.4934V27.136H88.1314ZM99.9231 31.69C99.9231 32.002 99.9051 32.332 99.8691 32.68H91.9851C92.0451 33.652 92.3751 34.414 92.9751 34.966C93.5871 35.506 94.3251 35.776 95.1891 35.776C95.8971 35.776 96.4851 35.614 96.9531 35.29C97.4331 34.954 97.7691 34.51 97.9611 33.958H99.7251C99.4611 34.906 98.9331 35.68 98.1411 36.28C97.3491 36.868 96.3651 37.162 95.1891 37.162C94.2531 37.162 93.4131 36.952 92.6691 36.532C91.9371 36.112 91.3611 35.518 90.9411 34.75C90.5211 33.97 90.3111 33.07 90.3111 32.05C90.3111 31.03 90.5151 30.136 90.9231 29.368C91.3311 28.6 91.9011 28.012 92.6331 27.604C93.3771 27.184 94.2291 26.974 95.1891 26.974C96.1251 26.974 96.9531 27.178 97.6731 27.586C98.3931 27.994 98.9451 28.558 99.3291 29.278C99.7251 29.986 99.9231 30.79 99.9231 31.69ZM98.2311 31.348C98.2311 30.724 98.0931 30.19 97.8171 29.746C97.5411 29.29 97.1631 28.948 96.6831 28.72C96.2151 28.48 95.6931 28.36 95.1171 28.36C94.2891 28.36 93.5811 28.624 92.9931 29.152C92.4171 29.68 92.0871 30.412 92.0031 31.348H98.2311ZM105.577 37.162C104.821 37.162 104.143 37.036 103.543 36.784C102.943 36.52 102.469 36.16 102.121 35.704C101.773 35.236 101.581 34.702 101.545 34.102H103.237C103.285 34.594 103.513 34.996 103.921 35.308C104.341 35.62 104.887 35.776 105.559 35.776C106.183 35.776 106.675 35.638 107.035 35.362C107.395 35.086 107.575 34.738 107.575 34.318C107.575 33.886 107.383 33.568 106.999 33.364C106.615 33.148 106.021 32.938 105.217 32.734C104.485 32.542 103.885 32.35 103.417 32.158C102.961 31.954 102.565 31.66 102.229 31.276C101.905 30.88 101.743 30.364 101.743 29.728C101.743 29.224 101.893 28.762 102.193 28.342C102.493 27.922 102.919 27.592 103.471 27.352C104.023 27.1 104.653 26.974 105.361 26.974C106.453 26.974 107.335 27.25 108.007 27.802C108.679 28.354 109.039 29.11 109.087 30.07H107.449C107.413 29.554 107.203 29.14 106.819 28.828C106.447 28.516 105.943 28.36 105.307 28.36C104.719 28.36 104.251 28.486 103.903 28.738C103.555 28.99 103.381 29.32 103.381 29.728C103.381 30.052 103.483 30.322 103.687 30.538C103.903 30.742 104.167 30.91 104.479 31.042C104.803 31.162 105.247 31.3 105.811 31.456C106.519 31.648 107.095 31.84 107.539 32.032C107.983 32.212 108.361 32.488 108.673 32.86C108.997 33.232 109.165 33.718 109.177 34.318C109.177 34.858 109.027 35.344 108.727 35.776C108.427 36.208 108.001 36.55 107.449 36.802C106.909 37.042 106.285 37.162 105.577 37.162ZM117.926 25.786V29.98H122.498V31.33H117.926V35.65H123.038V37H116.288V24.436H123.038V25.786H117.926ZM130.665 37L128.325 33.328L126.075 37H124.365L127.551 32.104L124.365 27.136H126.219L128.559 30.79L130.791 27.136H132.501L129.333 32.014L132.519 37H130.665ZM135.768 28.954C136.092 28.39 136.572 27.922 137.208 27.55C137.856 27.166 138.606 26.974 139.458 26.974C140.334 26.974 141.126 27.184 141.834 27.604C142.554 28.024 143.118 28.618 143.526 29.386C143.934 30.142 144.138 31.024 144.138 32.032C144.138 33.028 143.934 33.916 143.526 34.696C143.118 35.476 142.554 36.082 141.834 36.514C141.126 36.946 140.334 37.162 139.458 37.162C138.618 37.162 137.874 36.976 137.226 36.604C136.59 36.22 136.104 35.746 135.768 35.182V41.68H134.13V27.136H135.768V28.954ZM142.464 32.032C142.464 31.288 142.314 30.64 142.014 30.088C141.714 29.536 141.306 29.116 140.79 28.828C140.286 28.54 139.728 28.396 139.116 28.396C138.516 28.396 137.958 28.546 137.442 28.846C136.938 29.134 136.53 29.56 136.218 30.124C135.918 30.676 135.768 31.318 135.768 32.05C135.768 32.794 135.918 33.448 136.218 34.012C136.53 34.564 136.938 34.99 137.442 35.29C137.958 35.578 138.516 35.722 139.116 35.722C139.728 35.722 140.286 35.578 140.79 35.29C141.306 34.99 141.714 34.564 142.014 34.012C142.314 33.448 142.464 32.788 142.464 32.032ZM147.932 23.68V37H146.294V23.68H147.932ZM155.026 37.162C154.102 37.162 153.262 36.952 152.506 36.532C151.762 36.112 151.174 35.518 150.742 34.75C150.322 33.97 150.112 33.07 150.112 32.05C150.112 31.042 150.328 30.154 150.76 29.386C151.204 28.606 151.804 28.012 152.56 27.604C153.316 27.184 154.162 26.974 155.098 26.974C156.034 26.974 156.88 27.184 157.636 27.604C158.392 28.012 158.986 28.6 159.418 29.368C159.862 30.136 160.084 31.03 160.084 32.05C160.084 33.07 159.856 33.97 159.4 34.75C158.956 35.518 158.35 36.112 157.582 36.532C156.814 36.952 155.962 37.162 155.026 37.162ZM155.026 35.722C155.614 35.722 156.166 35.584 156.682 35.308C157.198 35.032 157.612 34.618 157.924 34.066C158.248 33.514 158.41 32.842 158.41 32.05C158.41 31.258 158.254 30.586 157.942 30.034C157.63 29.482 157.222 29.074 156.718 28.81C156.214 28.534 155.668 28.396 155.08 28.396C154.48 28.396 153.928 28.534 153.424 28.81C152.932 29.074 152.536 29.482 152.236 30.034C151.936 30.586 151.786 31.258 151.786 32.05C151.786 32.854 151.93 33.532 152.218 34.084C152.518 34.636 152.914 35.05 153.406 35.326C153.898 35.59 154.438 35.722 155.026 35.722ZM163.876 28.738C164.164 28.174 164.572 27.736 165.1 27.424C165.64 27.112 166.294 26.956 167.062 26.956V28.648H166.63C164.794 28.648 163.876 29.644 163.876 31.636V37H162.238V27.136H163.876V28.738ZM177.952 31.69C177.952 32.002 177.934 32.332 177.898 32.68H170.014C170.074 33.652 170.404 34.414 171.004 34.966C171.616 35.506 172.354 35.776 173.218 35.776C173.926 35.776 174.514 35.614 174.982 35.29C175.462 34.954 175.798 34.51 175.99 33.958H177.754C177.49 34.906 176.962 35.68 176.17 36.28C175.378 36.868 174.394 37.162 173.218 37.162C172.282 37.162 171.442 36.952 170.698 36.532C169.966 36.112 169.39 35.518 168.97 34.75C168.55 33.97 168.34 33.07 168.34 32.05C168.34 31.03 168.544 30.136 168.952 29.368C169.36 28.6 169.93 28.012 170.662 27.604C171.406 27.184 172.258 26.974 173.218 26.974C174.154 26.974 174.982 27.178 175.702 27.586C176.422 27.994 176.974 28.558 177.358 29.278C177.754 29.986 177.952 30.79 177.952 31.69ZM176.26 31.348C176.26 30.724 176.122 30.19 175.846 29.746C175.57 29.29 175.192 28.948 174.712 28.72C174.244 28.48 173.722 28.36 173.146 28.36C172.318 28.36 171.61 28.624 171.022 29.152C170.446 29.68 170.116 30.412 170.032 31.348H176.26ZM181.753 28.738C182.041 28.174 182.449 27.736 182.977 27.424C183.517 27.112 184.171 26.956 184.939 26.956V28.648H184.507C182.671 28.648 181.753 29.644 181.753 31.636V37H180.115V27.136H181.753V28.738Z" fill="#F8F8F8"/>
</svg>
