<svg width="145" height="45" viewBox="0 0 145 45" fill="none" xmlns="http://www.w3.org/2000/svg">
<path fill-rule="evenodd" clip-rule="evenodd" d="M43.5256 23.9824L39.7112 26.4812V34.3932L43.5256 36.8921C44.2853 36.8921 44.9047 35.9418 44.9047 34.7771V26.1C44.9047 24.9327 44.2853 23.9824 43.5256 23.9824V23.9824Z" fill="#F8F8F8"/>
<path fill-rule="evenodd" clip-rule="evenodd" d="M26.4335 15.8162C28.5219 15.8099 30.5223 14.9746 31.995 13.4939C33.4678 12.0132 34.2923 10.0084 34.2874 7.92C34.293 5.83118 33.4688 3.82563 31.996 2.34439C30.5232 0.863145 28.5224 0.0274887 26.4335 0.0211792C25.3988 0.0236093 24.3747 0.229866 23.4197 0.628167C22.4647 1.02647 21.5975 1.60901 20.8677 2.34252C20.1379 3.07603 19.5597 3.94613 19.1662 4.90313C18.7727 5.86013 18.5716 6.88527 18.5744 7.92C18.5702 10.0091 19.3957 12.0143 20.8694 13.495C22.3431 14.9757 24.3445 15.8106 26.4335 15.8162V15.8162ZM26.4335 2.57294C29.3665 2.57294 31.7435 4.96853 31.7435 7.92C31.7435 10.8741 29.3691 13.2671 26.4335 13.2671C25.7331 13.2657 25.0398 13.1262 24.3934 12.8566C23.7469 12.5871 23.1599 12.1927 22.666 11.6961C22.1721 11.1995 21.7809 10.6103 21.5149 9.96239C21.2488 9.31445 21.1132 8.62042 21.1156 7.92C21.1121 6.50584 21.6703 5.14816 22.6675 4.14547C23.6648 3.14278 25.0194 2.57715 26.4335 2.57294V2.57294Z" fill="#F8F8F8"/>
<path fill-rule="evenodd" clip-rule="evenodd" d="M9.28588 15.8479C10.1708 15.8877 11.0547 15.7478 11.884 15.4366C12.7134 15.1253 13.4711 14.6493 14.1114 14.0371C14.7517 13.425 15.2613 12.6894 15.6095 11.8748C15.9577 11.0603 16.1372 10.1836 16.1372 9.29779C16.1372 8.41195 15.9577 7.53529 15.6095 6.72074C15.2613 5.90619 14.7517 5.17063 14.1114 4.55848C13.4711 3.94632 12.7134 3.47026 11.884 3.15903C11.0547 2.8478 10.1708 2.70786 9.28588 2.74765C7.59961 2.82346 6.00754 3.54669 4.84108 4.76678C3.67462 5.98687 3.02363 7.60982 3.02363 9.29779C3.02363 10.9858 3.67462 12.6087 4.84108 13.8288C6.00754 15.0489 7.59961 15.7721 9.28588 15.8479ZM9.28588 5.32323C9.808 5.32323 10.325 5.42607 10.8074 5.62588C11.2898 5.82569 11.7281 6.11855 12.0973 6.48774C12.4665 6.85694 12.7593 7.29524 12.9591 7.77761C13.1589 8.25999 13.2618 8.777 13.2618 9.29912C13.2618 9.82124 13.1589 10.3382 12.9591 10.8206C12.7593 11.303 12.4665 11.7413 12.0973 12.1105C11.7281 12.4797 11.2898 12.7725 10.8074 12.9724C10.325 13.1722 9.808 13.275 9.28588 13.275C8.23141 13.275 7.22013 12.8561 6.47451 12.1105C5.72889 11.3649 5.31 10.3536 5.31 9.29912C5.31 8.24465 5.72889 7.23337 6.47451 6.48774C7.22013 5.74212 8.23141 5.32323 9.28588 5.32323V5.32323Z" fill="#F8F8F8"/>
<path fill-rule="evenodd" clip-rule="evenodd" d="M33.2179 18.6856H6.39C4.32265 18.6856 2.64706 20.422 2.64706 22.5635V38.4803C2.64706 40.6218 4.32265 42.3556 6.39 42.3556H33.2179C35.2853 42.3556 36.9635 40.6218 36.9635 38.4803V22.5662C36.9635 20.422 35.2853 18.6856 33.2179 18.6856Z" fill="#F8F8F8"/>
<path d="M57.408 26.696V35H56.316V28.808L53.556 35H52.788L50.016 28.796V35H48.924V26.696H50.1L53.172 33.56L56.244 26.696H57.408ZM62.1279 35.108C61.5119 35.108 60.9519 34.968 60.4479 34.688C59.9519 34.408 59.5599 34.012 59.2719 33.5C58.9919 32.98 58.8519 32.38 58.8519 31.7C58.8519 31.028 58.9959 30.436 59.2839 29.924C59.5799 29.404 59.9799 29.008 60.4839 28.736C60.9879 28.456 61.5519 28.316 62.1759 28.316C62.7999 28.316 63.3639 28.456 63.8679 28.736C64.3719 29.008 64.7679 29.4 65.0559 29.912C65.3519 30.424 65.4999 31.02 65.4999 31.7C65.4999 32.38 65.3479 32.98 65.0439 33.5C64.7479 34.012 64.3439 34.408 63.8319 34.688C63.3199 34.968 62.7519 35.108 62.1279 35.108ZM62.1279 34.148C62.5199 34.148 62.8879 34.056 63.2319 33.872C63.5759 33.688 63.8519 33.412 64.0599 33.044C64.2759 32.676 64.3839 32.228 64.3839 31.7C64.3839 31.172 64.2799 30.724 64.0719 30.356C63.8639 29.988 63.5919 29.716 63.2559 29.54C62.9199 29.356 62.5559 29.264 62.1639 29.264C61.7639 29.264 61.3959 29.356 61.0599 29.54C60.7319 29.716 60.4679 29.988 60.2679 30.356C60.0679 30.724 59.9679 31.172 59.9679 31.7C59.9679 32.236 60.0639 32.688 60.2559 33.056C60.4559 33.424 60.7199 33.7 61.0479 33.884C61.3759 34.06 61.7359 34.148 62.1279 34.148ZM69.3837 33.992L71.4237 28.424H72.5877L70.0077 35H68.7357L66.1557 28.424H67.3317L69.3837 33.992ZM74.2263 27.356C74.0183 27.356 73.8423 27.284 73.6983 27.14C73.5543 26.996 73.4823 26.82 73.4823 26.612C73.4823 26.404 73.5543 26.228 73.6983 26.084C73.8423 25.94 74.0183 25.868 74.2263 25.868C74.4263 25.868 74.5943 25.94 74.7303 26.084C74.8743 26.228 74.9463 26.404 74.9463 26.612C74.9463 26.82 74.8743 26.996 74.7303 27.14C74.5943 27.284 74.4263 27.356 74.2263 27.356ZM74.7543 28.424V35H73.6623V28.424H74.7543ZM82.6154 31.46C82.6154 31.668 82.6034 31.888 82.5794 32.12H77.3234C77.3634 32.768 77.5834 33.276 77.9834 33.644C78.3914 34.004 78.8834 34.184 79.4594 34.184C79.9314 34.184 80.3234 34.076 80.6354 33.86C80.9554 33.636 81.1794 33.34 81.3074 32.972H82.4834C82.3074 33.604 81.9554 34.12 81.4274 34.52C80.8994 34.912 80.2434 35.108 79.4594 35.108C78.8354 35.108 78.2754 34.968 77.7794 34.688C77.2914 34.408 76.9074 34.012 76.6274 33.5C76.3474 32.98 76.2074 32.38 76.2074 31.7C76.2074 31.02 76.3434 30.424 76.6154 29.912C76.8874 29.4 77.2674 29.008 77.7554 28.736C78.2514 28.456 78.8194 28.316 79.4594 28.316C80.0834 28.316 80.6354 28.452 81.1154 28.724C81.5954 28.996 81.9634 29.372 82.2194 29.852C82.4834 30.324 82.6154 30.86 82.6154 31.46ZM81.4874 31.232C81.4874 30.816 81.3954 30.46 81.2114 30.164C81.0274 29.86 80.7754 29.632 80.4554 29.48C80.1434 29.32 79.7954 29.24 79.4114 29.24C78.8594 29.24 78.3874 29.416 77.9954 29.768C77.6114 30.12 77.3914 30.608 77.3354 31.232H81.4874ZM86.3848 35.108C85.8808 35.108 85.4288 35.024 85.0288 34.856C84.6288 34.68 84.3128 34.44 84.0808 34.136C83.8488 33.824 83.7208 33.468 83.6968 33.068H84.8248C84.8568 33.396 85.0088 33.664 85.2808 33.872C85.5608 34.08 85.9248 34.184 86.3728 34.184C86.7888 34.184 87.1168 34.092 87.3568 33.908C87.5968 33.724 87.7168 33.492 87.7168 33.212C87.7168 32.924 87.5888 32.712 87.3328 32.576C87.0768 32.432 86.6808 32.292 86.1448 32.156C85.6568 32.028 85.2568 31.9 84.9448 31.772C84.6408 31.636 84.3768 31.44 84.1528 31.184C83.9368 30.92 83.8288 30.576 83.8288 30.152C83.8288 29.816 83.9288 29.508 84.1288 29.228C84.3288 28.948 84.6128 28.728 84.9808 28.568C85.3488 28.4 85.7688 28.316 86.2408 28.316C86.9688 28.316 87.5568 28.5 88.0048 28.868C88.4528 29.236 88.6928 29.74 88.7248 30.38H87.6328C87.6088 30.036 87.4688 29.76 87.2128 29.552C86.9648 29.344 86.6288 29.24 86.2048 29.24C85.8128 29.24 85.5008 29.324 85.2688 29.492C85.0368 29.66 84.9208 29.88 84.9208 30.152C84.9208 30.368 84.9888 30.548 85.1248 30.692C85.2688 30.828 85.4448 30.94 85.6528 31.028C85.8688 31.108 86.1648 31.2 86.5408 31.304C87.0128 31.432 87.3968 31.56 87.6928 31.688C87.9888 31.808 88.2408 31.992 88.4488 32.24C88.6648 32.488 88.7768 32.812 88.7848 33.212C88.7848 33.572 88.6848 33.896 88.4848 34.184C88.2848 34.472 88.0008 34.7 87.6328 34.868C87.2728 35.028 86.8568 35.108 86.3848 35.108ZM94.6176 27.524V30.32H97.6656V31.22H94.6176V34.1H98.0256V35H93.5256V26.624H98.0256V27.524H94.6176ZM103.11 35L101.55 32.552L100.05 35H98.9099L101.034 31.736L98.9099 28.424H100.146L101.706 30.86L103.194 28.424H104.334L102.222 31.676L104.346 35H103.11ZM106.512 29.636C106.728 29.26 107.048 28.948 107.472 28.7C107.904 28.444 108.404 28.316 108.972 28.316C109.556 28.316 110.084 28.456 110.556 28.736C111.036 29.016 111.412 29.412 111.684 29.924C111.956 30.428 112.092 31.016 112.092 31.688C112.092 32.352 111.956 32.944 111.684 33.464C111.412 33.984 111.036 34.388 110.556 34.676C110.084 34.964 109.556 35.108 108.972 35.108C108.412 35.108 107.916 34.984 107.484 34.736C107.06 34.48 106.736 34.164 106.512 33.788V38.12H105.42V28.424H106.512V29.636ZM110.976 31.688C110.976 31.192 110.876 30.76 110.676 30.392C110.476 30.024 110.204 29.744 109.86 29.552C109.524 29.36 109.152 29.264 108.744 29.264C108.344 29.264 107.972 29.364 107.628 29.564C107.292 29.756 107.02 30.04 106.812 30.416C106.612 30.784 106.512 31.212 106.512 31.7C106.512 32.196 106.612 32.632 106.812 33.008C107.02 33.376 107.292 33.66 107.628 33.86C107.972 34.052 108.344 34.148 108.744 34.148C109.152 34.148 109.524 34.052 109.86 33.86C110.204 33.66 110.476 33.376 110.676 33.008C110.876 32.632 110.976 32.192 110.976 31.688ZM114.621 26.12V35H113.529V26.12H114.621ZM119.351 35.108C118.735 35.108 118.175 34.968 117.671 34.688C117.175 34.408 116.783 34.012 116.495 33.5C116.215 32.98 116.075 32.38 116.075 31.7C116.075 31.028 116.219 30.436 116.507 29.924C116.803 29.404 117.203 29.008 117.707 28.736C118.211 28.456 118.775 28.316 119.399 28.316C120.023 28.316 120.587 28.456 121.091 28.736C121.595 29.008 121.991 29.4 122.279 29.912C122.575 30.424 122.723 31.02 122.723 31.7C122.723 32.38 122.571 32.98 122.267 33.5C121.971 34.012 121.567 34.408 121.055 34.688C120.543 34.968 119.975 35.108 119.351 35.108ZM119.351 34.148C119.743 34.148 120.111 34.056 120.455 33.872C120.799 33.688 121.075 33.412 121.283 33.044C121.499 32.676 121.607 32.228 121.607 31.7C121.607 31.172 121.503 30.724 121.295 30.356C121.087 29.988 120.815 29.716 120.479 29.54C120.143 29.356 119.779 29.264 119.387 29.264C118.987 29.264 118.619 29.356 118.283 29.54C117.955 29.716 117.691 29.988 117.491 30.356C117.291 30.724 117.191 31.172 117.191 31.7C117.191 32.236 117.287 32.688 117.479 33.056C117.679 33.424 117.943 33.7 118.271 33.884C118.599 34.06 118.959 34.148 119.351 34.148ZM125.25 29.492C125.442 29.116 125.714 28.824 126.066 28.616C126.426 28.408 126.862 28.304 127.374 28.304V29.432H127.086C125.862 29.432 125.25 30.096 125.25 31.424V35H124.158V28.424H125.25V29.492ZM134.635 31.46C134.635 31.668 134.623 31.888 134.599 32.12H129.343C129.383 32.768 129.603 33.276 130.003 33.644C130.411 34.004 130.903 34.184 131.479 34.184C131.951 34.184 132.343 34.076 132.655 33.86C132.975 33.636 133.199 33.34 133.327 32.972H134.503C134.327 33.604 133.975 34.12 133.447 34.52C132.919 34.912 132.263 35.108 131.479 35.108C130.855 35.108 130.295 34.968 129.799 34.688C129.311 34.408 128.927 34.012 128.647 33.5C128.367 32.98 128.227 32.38 128.227 31.7C128.227 31.02 128.363 30.424 128.635 29.912C128.907 29.4 129.287 29.008 129.775 28.736C130.271 28.456 130.839 28.316 131.479 28.316C132.103 28.316 132.655 28.452 133.135 28.724C133.615 28.996 133.983 29.372 134.239 29.852C134.503 30.324 134.635 30.86 134.635 31.46ZM133.507 31.232C133.507 30.816 133.415 30.46 133.231 30.164C133.047 29.86 132.795 29.632 132.475 29.48C132.163 29.32 131.815 29.24 131.431 29.24C130.879 29.24 130.407 29.416 130.015 29.768C129.631 30.12 129.411 30.608 129.355 31.232H133.507ZM137.168 29.492C137.36 29.116 137.632 28.824 137.984 28.616C138.344 28.408 138.78 28.304 139.292 28.304V29.432H139.004C137.78 29.432 137.168 30.096 137.168 31.424V35H136.076V28.424H137.168V29.492Z" fill="#F8F8F8"/>
</svg>
